<svg width="287" height="304" viewBox="0 0 287 304" fill="none" xmlns="http://www.w3.org/2000/svg">
<path d="M244.887 163.654L286.03 203.398C277.774 226.911 214.88 239.615 208.031 246.706C204.719 250.135 195.227 291.804 185.43 305.722C156.443 347.013 117.803 368.365 67.2434 362.659C-29.5934 351.757 -96.0919 239.28 -131.965 158.134L-89.9986 113.524C-57.6352 204.225 71.6136 400.609 154.804 249.263C65.559 239.826 -106.879 134.215 -20.0033 33.3708C70.6458 -71.8465 194.989 97.4928 203.268 187.996L244.909 163.631L244.887 163.654ZM146.365 190.676C150.658 148.374 62.2555 23.6514 21.1624 66.2382C-22.8189 111.768 109.124 184.936 146.365 190.676Z" fill="url(#paint0_linear_168_9)"/>
<defs>
<linearGradient id="paint0_linear_168_9" x1="291" y1="208" x2="-95.3822" y2="163.842" gradientUnits="userSpaceOnUse">
<stop stop-color="#3EF0C2"/>
<stop offset="0.360577" stop-color="#8051E1"/>
<stop offset="0.682692" stop-color="#E04970"/>
<stop offset="1" stop-color="#E15535"/>
</linearGradient>
</defs>
</svg>
