<svg width="219" height="235" viewBox="0 0 219 235" fill="none" xmlns="http://www.w3.org/2000/svg">
<path d="M258.947 181.259L238.266 234.594C213.391 236.101 177.294 183.053 168.103 179.489C163.658 177.766 121.568 185.173 104.94 181.54C55.6399 170.83 20.9767 143.492 6.63201 94.6748C-20.8657 1.18628 57.0281 -103.721 117.917 -168.252L175.309 -146.865C104.252 -81.8656 -26.6542 113.418 145.108 131.418C119.203 45.4952 149.691 -154.402 276.331 -113.424C408.465 -70.6631 300.586 109.612 220.373 152.335L258.978 181.271L258.947 181.259ZM195.84 100.922C236.497 88.4773 317.185 -41.3689 261.997 -62.7348C202.975 -85.6217 186.691 64.3694 195.84 100.922Z" fill="url(#paint0_linear_176_154)"/>
<defs>
<linearGradient id="paint0_linear_176_154" x1="149.5" y1="-34.5" x2="67.348" y2="235.944" gradientUnits="userSpaceOnUse">
<stop stop-color="#3EF0C2"/>
<stop offset="0.360577" stop-color="#8051E1"/>
<stop offset="0.682692" stop-color="#E04970"/>
<stop offset="1" stop-color="#E15535"/>
</linearGradient>
</defs>
</svg>
