<svg width="98" height="98" viewBox="0 0 98 98" fill="none" xmlns="http://www.w3.org/2000/svg">
<g clip-path="url(#clip0_168_3)">
<path d="M73.957 70.3787L73.9612 80.0817C70.096 81.8435 61.089 75.671 59.4046 75.6682C58.5905 75.6682 52.3548 79.4181 49.4879 79.8666C40.9885 81.1981 33.7925 79.0005 28.503 72.1601C18.374 59.0616 24.2877 37.6999 29.992 23.7633L40.4345 23.6241C33.1429 38.2623 24.3707 77.1642 52.7836 69.4817C43.3675 57.4812 35.8945 24.0066 58.5512 22.7215C82.1921 21.3801 76.1546 56.4984 66.0368 68.1699L73.9556 70.3801L73.957 70.3787ZM58.9744 61.5489C64.6688 57.0862 69.4914 31.6132 59.4046 31.6174C48.6077 31.6216 55.2709 56.3297 58.9744 61.5489Z" fill="white"/>
</g>
<defs>
<clipPath id="clip0_168_3">
<rect width="98" height="98" fill="white"/>
</clipPath>
</defs>
</svg>
